<svg xmlns="http://www.w3.org/2000/svg" viewBox="0 0 249 118" width="249" height="118">
	<style>
		tspan { white-space:pre }
	</style>
	<path id="Jhonatan's Portfolio " fill="#000000" d="M103.53 33.75Q103.45 33.85 103.42 34.41Q103.38 34.94 103.38 35.78Q103.38 36.62 103.38 37.63Q103.42 38.65 103.45 39.7Q103.49 40.71 103.49 41.7Q103.53 42.64 103.53 43.34L103.53 50.9Q103.53 51.35 103.45 51.91Q103.38 52.48 102.97 52.65Q102.79 52.72 102.27 52.76Q101.78 52.79 101.07 52.83Q100.41 52.83 99.64 52.83Q98.87 52.83 98.17 52.83Q97.5 52.79 97.02 52.79Q96.53 52.76 96.38 52.76Q95.69 52.76 95.3 52.58Q94.91 52.41 94.91 51.6L94.91 46.07L94.91 33.92Q94.91 33.78 94.39 33.75Q93.9 33.72 93.23 33.75Q92.6 33.75 92.01 33.78Q91.45 33.78 91.34 33.75Q90.82 33.72 90.54 33.64Q90.29 33.54 90.19 33.36Q90.12 33.19 90.12 32.88Q90.16 32.52 90.16 32Q90.36 31.68 90.64 31.58Q90.92 31.44 91.2 31.44Q91.52 31.4 91.83 31.44Q92.15 31.47 92.47 31.47L106.71 31.47Q107.27 31.47 107.58 31.51Q107.94 31.51 108.11 31.61Q108.32 31.72 108.39 31.96Q108.46 32.21 108.46 32.63Q108.46 33.02 108.25 33.22Q108.07 33.44 107.8 33.58Q107.55 33.68 107.23 33.72Q106.95 33.75 106.71 33.75Q105.87 33.75 105.03 33.64Q104.19 33.54 103.53 33.75ZM111.89 50.97Q111.61 48.55 111.47 46.7Q111.33 44.84 111.26 43.02Q111.19 41.17 111.16 39.14Q111.16 37.08 111.16 34.27Q111.16 33.72 111.08 32.98Q111.05 32.24 111.05 31.54Q111.05 30.84 111.12 30.28Q111.22 29.69 111.5 29.41Q111.82 29.13 112.27 28.99Q112.77 28.85 113.33 28.78Q113.88 28.71 114.48 28.71Q115.08 28.67 115.67 28.67Q117.77 28.53 119.66 28.6Q121.58 28.67 123.19 28.95Q124.8 29.23 126.03 29.72Q127.29 30.21 127.99 30.91Q129.67 32.59 130.72 34.55Q131.81 36.48 132.09 39Q132.37 40.68 132.26 42.81Q132.19 44.91 131.35 47.19Q130.93 48.31 130.13 49.19Q129.35 50.02 128.38 50.66Q127.39 51.28 126.31 51.74Q125.22 52.16 124.25 52.44Q122.84 52.72 121.2 52.76Q119.55 52.79 117.88 52.79Q117.17 52.79 116.19 52.76Q115.25 52.72 114.34 52.58Q113.43 52.41 112.73 52.05Q112.03 51.67 111.89 50.97ZM127.64 48.34Q128.83 47.23 129.39 45.41Q129.99 43.59 129.95 41.59Q129.91 39.56 129.32 37.6Q128.72 35.6 127.6 34.13Q126.52 32.66 124.91 31.93Q123.3 31.19 121.23 31.65Q121.09 31.79 121.03 32.31Q120.95 32.8 120.92 33.44Q120.88 34.06 120.88 34.69Q120.88 35.33 120.88 35.74Q120.88 39.7 121.06 43.34Q121.23 46.98 121.23 49.81Q122.22 50.09 123.13 50.06Q124.03 49.99 124.84 49.78Q125.64 49.53 126.34 49.15Q127.05 48.77 127.64 48.34ZM136.43 50.97Q136.15 48.55 136 46.7Q135.87 44.84 135.8 43.02Q135.72 41.17 135.69 39.14Q135.69 37.08 135.69 34.27Q135.69 33.72 135.62 32.98Q135.59 32.24 135.59 31.54Q135.59 30.84 135.66 30.28Q135.76 29.69 136.04 29.41Q136.35 29.13 136.81 28.99Q137.3 28.85 137.86 28.78Q138.42 28.71 139.01 28.71Q139.61 28.67 140.21 28.67Q142.31 28.53 144.19 28.6Q146.12 28.67 147.73 28.95Q149.34 29.23 150.56 29.72Q151.82 30.21 152.53 30.91Q154.21 32.59 155.25 34.55Q156.34 36.48 156.62 39Q156.9 40.68 156.8 42.81Q156.72 44.91 155.88 47.19Q155.47 48.31 154.66 49.19Q153.89 50.02 152.91 50.66Q151.93 51.28 150.84 51.74Q149.76 52.16 148.78 52.44Q147.38 52.72 145.74 52.76Q144.09 52.79 142.41 52.79Q141.71 52.79 140.73 52.76Q139.78 52.72 138.88 52.58Q137.97 52.41 137.26 52.05Q136.56 51.67 136.43 50.97ZM152.18 48.34Q153.37 47.23 153.93 45.41Q154.52 43.59 154.49 41.59Q154.45 39.56 153.86 37.6Q153.26 35.6 152.14 34.13Q151.06 32.66 149.44 31.93Q147.84 31.19 145.77 31.65Q145.63 31.79 145.56 32.31Q145.49 32.8 145.46 33.44Q145.42 34.06 145.42 34.69Q145.42 35.33 145.42 35.74Q145.42 39.7 145.59 43.34Q145.77 46.98 145.77 49.81Q146.75 50.09 147.66 50.06Q148.57 49.99 149.38 49.78Q150.18 49.53 150.88 49.15Q151.58 48.77 152.18 48.34ZM16.62 74.45Q16.69 77.22 16.65 79.22Q16.65 81.21 16.58 82.72Q16.55 84.22 16.48 85.38Q16.41 86.5 16.37 87.62Q16.37 88.7 16.41 89.89Q16.44 91.05 16.62 92.59Q17.18 92.59 17.84 92.62Q18.54 92.62 19.07 92.8Q19.63 92.94 19.91 93.25Q20.19 93.56 19.98 94.13Q19.87 94.44 19.42 94.58Q18.96 94.72 18.37 94.75Q17.81 94.79 17.21 94.75Q16.62 94.72 16.27 94.72Q14.27 94.72 12.91 94.79Q11.54 94.86 10.63 94.9Q9.76 94.93 9.23 94.86Q8.71 94.75 8.43 94.47Q8.15 94.16 7.97 93.56Q7.83 92.97 7.69 91.99Q7.69 91.6 7.69 90.69Q7.69 89.78 7.66 88.59Q7.66 87.37 7.62 86Q7.62 84.6 7.59 83.31Q7.55 82.02 7.48 80.89Q7.45 79.78 7.38 79.11Q7.38 77.92 7.41 76.66Q7.45 75.4 7.69 74.45Q7.76 73.93 8.43 73.58Q9.09 73.19 10.04 73.02Q11.02 72.84 12.14 72.84Q13.26 72.84 14.2 73.02Q15.18 73.19 15.85 73.58Q16.51 73.93 16.62 74.45ZM37.86 89.96Q37.86 90.48 37.86 91.15Q37.86 91.78 37.83 92.41Q37.83 93.04 37.72 93.63Q37.65 94.19 37.44 94.62Q37.3 94.9 36.32 95.07Q35.34 95.21 34.19 95.21Q33.07 95.21 32.09 95.07Q31.14 94.9 31 94.55Q30.79 93.91 30.76 92.9Q30.76 91.85 30.76 90.73Q30.79 89.58 30.79 88.53Q30.83 87.47 30.72 86.81Q29.92 86.7 28.97 86.7Q28.06 86.67 27.08 86.67Q26.1 86.67 25.12 86.67Q24.14 86.63 23.23 86.53Q23.02 87.51 23.02 88.59Q23.02 89.64 23.06 90.69Q23.13 91.75 23.13 92.69Q23.16 93.63 23.06 94.3Q22.99 94.75 22.64 94.93Q22.32 95.07 21.94 95.03Q21.59 94.97 21.31 94.69Q21.03 94.41 21.03 93.98Q21.03 92.8 20.99 91.64Q20.96 90.48 21.03 88.73Q21.1 86.74 21.13 84.81Q21.2 82.85 21.45 81.07Q21.69 79.28 22.25 77.78Q22.81 76.24 23.9 75.08Q24.6 74.28 25.72 73.65Q26.84 73.02 28.41 73.02Q30.62 73.02 32.19 73.72Q33.8 74.42 34.85 75.64Q35.94 76.87 36.57 78.52Q37.2 80.13 37.48 82.02Q37.79 83.91 37.86 85.94Q37.93 87.97 37.86 89.96ZM23.27 84.57L31.07 84.57Q31.07 82.16 30.79 80.47Q30.51 78.8 29.95 77.75Q29.43 76.69 28.66 76.24Q27.89 75.75 26.91 75.75Q26.24 75.75 25.72 76.24Q25.19 76.73 24.77 77.53Q24.39 78.34 24.11 79.32Q23.83 80.3 23.62 81.28Q23.44 82.26 23.34 83.13Q23.27 84.01 23.27 84.57ZM50.29 87.69Q50.85 88.45 51.76 89.3Q52.67 90.13 53.54 90.91Q54.42 91.67 55.05 92.31Q55.68 92.94 55.64 93.28Q55.54 94.09 55.22 94.37Q54.91 94.65 54.42 94.58Q53.96 94.47 53.37 94.06Q52.77 93.63 52.07 93Q51.13 92.09 50.11 91.12Q49.1 90.1 48.19 89.44Q48.08 89.96 48.15 90.69Q48.22 91.43 48.26 92.16Q48.29 92.87 48.19 93.42Q48.12 93.98 47.66 94.16Q47.35 94.51 46.47 94.69Q45.63 94.86 44.62 94.9Q43.64 94.9 42.66 94.79Q41.71 94.69 41.15 94.44Q40.49 94.23 40.38 93.6Q40.28 92.97 40.28 92.09Q40.35 90.84 40.28 89.05Q40.24 87.23 40.14 85.27Q40.07 83.28 40.03 81.28Q40 79.25 40.07 77.6Q40.14 75.96 40.38 74.84Q40.63 73.72 41.15 73.47Q41.82 73.05 43.15 72.91Q44.51 72.78 46.02 72.84Q47.56 72.88 48.96 73.09Q50.39 73.27 51.16 73.47Q52.28 73.83 53.12 74.53Q54 75.19 54.56 76.06Q55.15 76.91 55.47 77.88Q55.78 78.83 55.89 79.7Q55.89 80.37 55.85 81.07Q55.85 81.77 55.75 82.44Q55.68 83.1 55.5 83.69Q55.33 84.25 54.98 84.67Q54.14 85.83 52.95 86.42Q51.79 87.02 50.29 87.69ZM47.91 85.86Q48.78 86.11 49.83 85.83Q50.88 85.55 51.76 84.99Q52.67 84.43 53.26 83.66Q53.86 82.89 53.86 82.12Q53.96 80.34 53.51 78.97Q53.09 77.57 52.28 76.63Q51.48 75.68 50.36 75.22Q49.27 74.73 48.05 74.73Q48.05 76.06 48.01 77.64Q48.01 79.22 47.98 80.79Q47.94 82.33 47.91 83.69Q47.91 85.03 47.91 85.86ZM73.95 89.96Q73.95 90.48 73.95 91.15Q73.95 91.78 73.91 92.41Q73.91 93.04 73.81 93.63Q73.74 94.19 73.53 94.62Q73.39 94.9 72.41 95.07Q71.43 95.21 70.27 95.21Q69.15 95.21 68.17 95.07Q67.23 94.9 67.09 94.55Q66.88 93.91 66.84 92.9Q66.84 91.85 66.84 90.73Q66.88 89.58 66.88 88.53Q66.91 87.47 66.81 86.81Q66 86.7 65.06 86.7Q64.15 86.67 63.17 86.67Q62.19 86.67 61.21 86.67Q60.23 86.63 59.32 86.53Q59.11 87.51 59.11 88.59Q59.11 89.64 59.14 90.69Q59.21 91.75 59.21 92.69Q59.25 93.63 59.14 94.3Q59.07 94.75 58.72 94.93Q58.41 95.07 58.02 95.03Q57.67 94.97 57.39 94.69Q57.11 94.41 57.11 93.98Q57.11 92.8 57.08 91.64Q57.04 90.48 57.11 88.73Q57.18 86.74 57.22 84.81Q57.29 82.85 57.53 81.07Q57.78 79.28 58.34 77.78Q58.9 76.24 59.98 75.08Q60.68 74.28 61.8 73.65Q62.92 73.02 64.5 73.02Q66.7 73.02 68.28 73.72Q69.89 74.42 70.94 75.64Q72.02 76.87 72.65 78.52Q73.28 80.13 73.56 82.02Q73.88 83.91 73.95 85.94Q74.02 87.97 73.95 89.96ZM59.35 84.57L67.16 84.57Q67.16 82.16 66.88 80.47Q66.6 78.8 66.04 77.75Q65.51 76.69 64.74 76.24Q63.97 75.75 62.99 75.75Q62.33 75.75 61.8 76.24Q61.28 76.73 60.86 77.53Q60.47 78.34 60.19 79.32Q59.91 80.3 59.7 81.28Q59.53 82.26 59.42 83.13Q59.35 84.01 59.35 84.57ZM85.08 88.56Q85.85 87.3 86.51 85.72Q87.18 84.11 87.88 82.33Q88.44 80.72 89.03 79.08Q89.63 77.39 89.98 75.92Q90.08 75.58 90.15 75.08Q90.22 74.59 90.43 74.25Q90.64 73.86 91.1 73.75Q91.55 73.61 92.43 73.97Q92.64 74.03 92.71 74.31Q92.78 74.59 92.74 74.91Q92.74 75.22 92.67 75.54Q92.64 75.82 92.64 75.92Q92.43 76.69 91.94 78.27Q91.48 79.84 90.78 81.81Q90.12 83.73 89.28 85.86Q88.44 87.97 87.49 89.78Q86.58 91.6 85.57 92.94Q84.59 94.27 83.61 94.65Q82.8 95.1 81.89 94.86Q81.02 94.58 80.21 93.91Q79.41 93.25 78.78 92.41Q78.15 91.57 77.9 90.87Q77.34 89.68 76.99 88.49Q76.64 87.3 76.33 86.08Q76.05 84.85 75.77 83.56Q75.49 82.26 75.07 80.86Q74.96 80.41 74.65 79.6Q74.37 78.8 74.12 77.88Q73.88 76.97 73.77 76.06Q73.67 75.12 73.91 74.45Q74.09 74.03 74.65 73.79Q75.24 73.55 75.98 73.44Q76.71 73.33 77.45 73.33Q78.18 73.3 78.71 73.3Q78.95 73.3 79.44 73.3Q79.93 73.27 80.46 73.33Q81.02 73.37 81.51 73.55Q82 73.72 82.21 74.14Q82.73 75.78 83.05 77.6Q83.36 79.39 83.61 81.28Q83.89 83.13 84.2 84.99Q84.52 86.84 85.08 88.56ZM106.78 75.4L102.96 75.4Q102.82 76.17 102.79 77.39Q102.79 78.58 102.82 79.91Q102.86 81.25 102.89 82.58Q102.96 83.87 102.96 84.85Q103.38 84.99 103.73 85.03Q104.08 85.03 104.43 85.03Q104.78 84.99 105.13 84.95Q105.52 84.92 105.94 84.92Q106.71 84.95 107.2 84.99Q107.72 84.99 108.04 85.13Q108.35 85.23 108.49 85.55Q108.63 85.83 108.63 86.39Q108.63 86.81 107.93 86.95Q107.27 87.09 106.36 87.13Q105.45 87.13 104.47 87.13Q103.52 87.09 102.96 87.19Q102.82 87.79 102.82 88.42Q102.82 89.02 102.82 89.64Q102.86 90.28 102.82 90.94Q102.82 91.6 102.72 92.27Q103.07 92.41 103.73 92.41Q104.43 92.41 105.24 92.38Q106.08 92.34 106.92 92.34Q107.79 92.31 108.49 92.41Q109.19 92.48 109.61 92.72Q110.07 92.97 110.07 93.5Q110.07 94.02 109.65 94.3Q109.26 94.55 108.56 94.65Q107.86 94.75 106.92 94.75Q106.01 94.72 104.99 94.72Q103.56 94.58 101.67 94.72Q99.78 94.83 98.06 94.86Q96.35 94.86 95.12 94.58Q93.93 94.27 93.86 93.25Q93.65 89.4 93.69 85.44Q93.72 81.49 93.72 77.47Q93.72 77.01 93.72 76.48Q93.72 75.92 93.76 75.44Q93.79 74.91 93.83 74.53Q93.9 74.1 94 73.89Q94.25 73.69 95.02 73.58Q95.79 73.44 96.7 73.41Q97.64 73.33 98.52 73.33Q99.39 73.3 99.92 73.3L104.99 73.3Q105.66 73.3 106.5 73.23Q107.34 73.16 108.07 73.23Q108.81 73.27 109.3 73.51Q109.79 73.75 109.79 74.42Q109.79 74.88 109.44 75.08Q109.12 75.3 108.63 75.36Q108.18 75.44 107.65 75.44Q107.13 75.4 106.78 75.4ZM120.95 74.45Q121.02 77.22 120.99 79.22Q120.99 81.21 120.92 82.72Q120.88 84.22 120.81 85.38Q120.74 86.5 120.71 87.62Q120.71 88.7 120.74 89.89Q120.78 91.05 120.95 92.59Q121.51 92.59 122.18 92.62Q122.88 92.62 123.4 92.8Q123.96 92.94 124.24 93.25Q124.52 93.56 124.31 94.13Q124.21 94.44 123.75 94.58Q123.3 94.72 122.7 94.75Q122.14 94.79 121.55 94.75Q120.95 94.72 120.6 94.72Q118.61 94.72 117.24 94.79Q115.88 94.86 114.97 94.9Q114.09 94.93 113.57 94.86Q113.04 94.75 112.76 94.47Q112.48 94.16 112.31 93.56Q112.17 92.97 112.03 91.99Q112.03 91.6 112.03 90.69Q112.03 89.78 111.99 88.59Q111.99 87.37 111.96 86Q111.96 84.6 111.92 83.31Q111.89 82.02 111.82 80.89Q111.78 79.78 111.71 79.11Q111.71 77.92 111.75 76.66Q111.78 75.4 112.03 74.45Q112.1 73.93 112.76 73.58Q113.43 73.19 114.37 73.02Q115.35 72.84 116.47 72.84Q117.59 72.84 118.54 73.02Q119.52 73.19 120.18 73.58Q120.85 73.93 120.95 74.45ZM132.92 83.91Q133.31 83.91 133.52 84.39Q133.76 84.85 133.76 85.41Q133.76 85.94 133.48 86.42Q133.2 86.88 132.54 86.88L126.24 86.88Q125.64 86.95 125.29 86.5Q124.98 86.04 124.94 85.48Q124.91 84.88 125.15 84.39Q125.43 83.91 126.03 83.91Q126.69 83.84 127.74 83.84Q128.79 83.8 129.84 83.84Q130.89 83.84 131.77 83.87Q132.64 83.91 132.92 83.91ZM144.26 76.28Q144.26 80.44 144.37 84.6Q144.47 88.77 144.82 92.52Q144.82 92.62 145.42 92.69Q146.05 92.72 146.85 92.69Q147.69 92.66 148.46 92.52Q149.27 92.38 149.62 92.16Q150.07 91.88 150.56 91.71Q151.05 91.5 151.54 91.71Q151.86 92.09 151.89 92.41Q151.93 92.69 151.79 92.94Q151.65 93.18 151.41 93.39Q151.16 93.56 150.91 93.7Q150.11 94.16 149.06 94.41Q148.01 94.65 146.89 94.75Q145.77 94.83 144.65 94.75Q143.53 94.69 142.58 94.55Q141.04 94.44 139.68 93.78Q138.35 93.08 137.3 92.03Q136.25 90.97 135.51 89.64Q134.81 88.28 134.6 86.88Q134.36 85.83 134.39 84.57Q134.43 83.28 134.64 82.05Q134.85 80.83 135.16 79.74Q135.51 78.66 135.83 77.99Q136.42 76.8 137.4 75.89Q138.42 74.94 139.68 74.31Q140.94 73.69 142.41 73.37Q143.88 73.05 145.38 73.05Q146.75 73.05 148.15 73.19Q149.55 73.33 150.84 74.21Q151.09 74.38 151.44 74.7Q151.82 74.98 152.1 75.33Q152.38 75.64 152.45 76.03Q152.52 76.38 152.21 76.69Q151.82 76.94 151.51 76.91Q151.23 76.83 150.95 76.66Q150.7 76.45 150.46 76.2Q150.25 75.92 150 75.75Q149.48 75.36 148.5 75.12Q147.55 74.88 146.61 74.91Q145.66 74.91 144.96 75.22Q144.26 75.54 144.26 76.28ZM160.68 73.55Q163.2 73.41 165.09 73.72Q166.98 74 168.34 74.84Q169.75 75.64 170.69 76.97Q171.63 78.31 172.23 80.23Q172.48 81.03 172.58 81.73Q172.72 82.4 172.72 83.2Q172.75 84.01 172.69 85.06Q172.65 86.08 172.51 87.55Q172.27 89.44 171.22 91.05Q170.17 92.66 168.56 93.78Q166.94 94.86 164.92 95.35Q162.88 95.84 160.68 95.49Q158.48 95.17 156.62 94.02Q154.8 92.87 153.54 91.05Q152.77 90.03 152.35 88.63Q151.93 87.19 151.79 85.69Q151.69 84.15 151.86 82.64Q152.07 81.1 152.56 79.84Q153.09 78.69 153.93 77.6Q154.77 76.52 155.81 75.68Q156.87 74.81 158.09 74.25Q159.35 73.65 160.68 73.55ZM167.5 77.05Q166.98 76.59 166.03 76.2Q165.13 75.82 164.22 75.68Q163.31 75.5 162.61 75.64Q161.91 75.75 161.77 76.31Q161.63 77.11 161.63 78.31Q161.63 79.46 161.66 80.79Q161.73 82.12 161.77 83.56Q161.84 84.95 161.8 86.22Q161.77 86.91 161.73 87.89Q161.69 88.88 161.8 89.82Q161.94 90.73 162.29 91.47Q162.64 92.16 163.41 92.31Q165.13 92.66 166.42 92.03Q167.75 91.36 168.63 90.06Q169.5 88.73 169.88 86.98Q170.31 85.23 170.2 83.45Q170.09 81.63 169.43 79.95Q168.77 78.23 167.5 77.05ZM181.3 73.79Q181.68 74.84 181.72 76.52Q181.75 78.2 181.72 80.13Q181.68 82.05 181.68 84.01Q181.68 85.97 181.96 87.55Q182.24 89.12 182.94 90.13Q183.64 91.12 185.04 91.12Q186.16 90.97 186.83 89.92Q187.53 88.84 187.88 87.34Q188.23 85.8 188.33 83.97Q188.44 82.12 188.4 80.44Q188.4 78.72 188.33 77.36Q188.26 75.96 188.26 75.3Q188.26 74.73 188.37 74.28Q188.44 73.89 188.57 73.58Q188.75 73.27 189.06 73.27Q189.69 73.27 190.05 73.37Q190.4 73.47 190.57 73.72Q190.75 73.97 190.78 74.42Q190.81 74.88 190.81 75.54L190.81 81.07Q190.81 82.68 190.75 84.01Q190.68 85.31 190.5 86.46Q190.33 87.58 189.98 88.59Q189.63 89.61 189.06 90.59Q188.65 91.47 187.98 92.27Q187.35 93.08 186.37 93.67Q185.43 94.27 184.17 94.55Q182.91 94.79 181.3 94.58Q179.16 94.37 177.73 93.5Q176.33 92.59 175.42 91.22Q174.54 89.82 174.09 88.07Q173.63 86.32 173.42 84.43Q173.25 82.54 173.21 80.65Q173.21 78.72 173.21 77.01L173.21 74.73Q173.21 74.21 173.46 73.86Q173.7 73.51 174.05 73.33Q174.44 73.13 174.89 73.05Q175.38 72.95 175.8 72.95L178.08 72.95Q178.63 72.95 179.16 72.98Q179.69 72.98 180.14 73.05Q180.59 73.13 180.88 73.3Q181.19 73.47 181.3 73.79ZM202.23 87.69Q202.79 88.45 203.7 89.3Q204.61 90.13 205.48 90.91Q206.36 91.67 206.99 92.31Q207.62 92.94 207.58 93.28Q207.48 94.09 207.16 94.37Q206.85 94.65 206.36 94.58Q205.9 94.47 205.31 94.06Q204.71 93.63 204.01 93Q203.06 92.09 202.05 91.12Q201.04 90.1 200.13 89.44Q200.02 89.96 200.09 90.69Q200.16 91.43 200.19 92.16Q200.23 92.87 200.13 93.42Q200.06 93.98 199.6 94.16Q199.29 94.51 198.41 94.69Q197.57 94.86 196.56 94.9Q195.58 94.9 194.6 94.79Q193.65 94.69 193.09 94.44Q192.43 94.23 192.32 93.6Q192.22 92.97 192.22 92.09Q192.29 90.84 192.22 89.05Q192.18 87.23 192.08 85.27Q192 83.28 191.97 81.28Q191.94 79.25 192 77.6Q192.08 75.96 192.32 74.84Q192.56 73.72 193.09 73.47Q193.75 73.05 195.09 72.91Q196.45 72.78 197.96 72.84Q199.5 72.88 200.9 73.09Q202.33 73.27 203.1 73.47Q204.22 73.83 205.06 74.53Q205.94 75.19 206.5 76.06Q207.09 76.91 207.41 77.88Q207.72 78.83 207.83 79.7Q207.83 80.37 207.79 81.07Q207.79 81.77 207.69 82.44Q207.62 83.1 207.44 83.69Q207.27 84.25 206.92 84.67Q206.08 85.83 204.89 86.42Q203.73 87.02 202.23 87.69ZM199.85 85.86Q200.72 86.11 201.77 85.83Q202.82 85.55 203.7 84.99Q204.61 84.43 205.2 83.66Q205.8 82.89 205.8 82.12Q205.9 80.34 205.45 78.97Q205.03 77.57 204.22 76.63Q203.42 75.68 202.3 75.22Q201.21 74.73 199.99 74.73Q199.99 76.06 199.95 77.64Q199.95 79.22 199.92 80.79Q199.88 82.33 199.85 83.69Q199.85 85.03 199.85 85.86ZM222.04 74.17Q222.49 74.35 222.91 74.66Q223.33 74.94 223.58 75.3Q223.86 75.61 223.93 75.96Q224.03 76.28 223.86 76.48Q223.44 76.97 222.81 76.87Q222.21 76.73 221.72 76.48Q221.62 76.48 221.13 76.24Q220.64 75.96 219.94 75.75Q219.27 75.5 218.5 75.47Q217.77 75.44 217.14 75.89Q216.47 76.34 216.23 77.01Q215.98 77.67 216.02 78.34Q216.09 79 216.37 79.6Q216.68 80.19 217.14 80.51Q218.54 81.84 219.69 82.72Q220.85 83.59 221.69 84.33Q222.56 85.06 223.09 85.86Q223.65 86.67 223.86 87.89Q224.28 90 223.61 91.43Q222.98 92.83 221.69 93.63Q220.39 94.44 218.71 94.72Q217.03 95 215.42 94.86Q213.81 94.69 212.48 94.16Q211.19 93.6 210.63 92.8Q210.59 92.72 210.38 92.48Q210.21 92.2 210.03 91.85Q209.89 91.5 209.82 91.15Q209.79 90.77 210.07 90.48Q210.42 90.13 210.7 90.1Q210.98 90.06 211.19 90.2Q211.43 90.34 211.61 90.63Q211.78 90.87 211.89 91.12Q212.31 91.75 213.22 92.13Q214.13 92.52 215.07 92.48Q216.05 92.44 216.82 91.92Q217.63 91.39 217.77 90.2Q217.77 88.88 217.17 88.17Q216.58 87.47 215.7 87.02Q214.86 86.53 213.88 86.11Q212.94 85.69 212.17 84.95Q211.19 84.19 210.49 83.48Q209.79 82.75 209.37 81.88Q208.95 81 208.81 79.88Q208.7 78.72 208.91 77.11Q209.05 75.78 210.38 74.81Q211.71 73.79 213.64 73.33Q215.56 72.88 217.8 73.05Q220.08 73.19 222.04 74.17ZM238.63 75.4L234.81 75.4Q234.67 76.17 234.64 77.39Q234.64 78.58 234.67 79.91Q234.71 81.25 234.74 82.58Q234.81 83.87 234.81 84.85Q235.23 84.99 235.58 85.03Q235.93 85.03 236.28 85.03Q236.63 84.99 236.98 84.95Q237.37 84.92 237.79 84.92Q238.56 84.95 239.05 84.99Q239.57 84.99 239.89 85.13Q240.2 85.23 240.34 85.55Q240.48 85.83 240.48 86.39Q240.48 86.81 239.78 86.95Q239.12 87.09 238.21 87.13Q237.3 87.13 236.32 87.13Q235.37 87.09 234.81 87.19Q234.67 87.79 234.67 88.42Q234.67 89.02 234.67 89.64Q234.71 90.28 234.67 90.94Q234.67 91.6 234.57 92.27Q234.92 92.41 235.58 92.41Q236.28 92.41 237.09 92.38Q237.93 92.34 238.77 92.34Q239.64 92.31 240.34 92.41Q241.04 92.48 241.46 92.72Q241.92 92.97 241.92 93.5Q241.92 94.02 241.5 94.3Q241.11 94.55 240.41 94.65Q239.71 94.75 238.77 94.75Q237.86 94.72 236.84 94.72Q235.41 94.58 233.52 94.72Q231.63 94.83 229.91 94.86Q228.2 94.86 226.97 94.58Q225.78 94.27 225.71 93.25Q225.5 89.4 225.54 85.44Q225.57 81.49 225.57 77.47Q225.57 77.01 225.57 76.48Q225.57 75.92 225.61 75.44Q225.64 74.91 225.68 74.53Q225.75 74.1 225.85 73.89Q226.1 73.69 226.87 73.58Q227.64 73.44 228.55 73.41Q229.49 73.33 230.37 73.33Q231.24 73.3 231.77 73.3L236.84 73.3Q237.51 73.3 238.35 73.23Q239.19 73.16 239.92 73.23Q240.66 73.27 241.15 73.51Q241.64 73.75 241.64 74.42Q241.64 74.88 241.29 75.08Q240.97 75.3 240.48 75.36Q240.03 75.44 239.5 75.44Q238.98 75.4 238.63 75.4Z" />
</svg>